<mxfile host="app.diagrams.net" modified="2021-03-03T07:49:09.908Z" agent="5.0 (Macintosh; Intel Mac OS X 10_13_2) AppleWebKit/537.36 (KHTML, like Gecko) Chrome/88.0.4324.182 Safari/537.36" etag="Kd9dtC8y_Xp-EECcrh2m" version="14.4.3" type="github">
  <diagram id="zbNNPS7_GhzL8kuUdUZy" name="Page-1">
    <mxGraphModel dx="1905" dy="1177" grid="1" gridSize="10" guides="1" tooltips="1" connect="1" arrows="1" fold="1" page="1" pageScale="1" pageWidth="827" pageHeight="1169" math="0" shadow="0">
      <root>
        <mxCell id="0" />
        <mxCell id="1" parent="0" />
        <mxCell id="LKjwnLs6DcxSd8IVzzD5-17" value="Pharbers" style="swimlane;fontStyle=0;childLayout=stackLayout;horizontal=1;startSize=26;fillColor=none;horizontalStack=0;resizeParent=1;resizeParentMax=0;resizeLast=0;collapsible=1;marginBottom=0;" parent="1" vertex="1">
          <mxGeometry x="170" y="550" width="220" height="416" as="geometry">
            <mxRectangle x="110" y="120" width="90" height="26" as="alternateBounds" />
          </mxGeometry>
        </mxCell>
        <mxCell id="LKjwnLs6DcxSd8IVzzD5-18" value="+ request()" style="text;strokeColor=none;fillColor=none;align=left;verticalAlign=top;spacingLeft=4;spacingRight=4;overflow=hidden;rotatable=0;points=[[0,0.5],[1,0.5]];portConstraint=eastwest;" parent="LKjwnLs6DcxSd8IVzzD5-17" vertex="1">
          <mxGeometry y="26" width="220" height="26" as="geometry" />
        </mxCell>
        <mxCell id="LKjwnLs6DcxSd8IVzzD5-19" value="+ getClient()" style="text;strokeColor=none;fillColor=none;align=left;verticalAlign=top;spacingLeft=4;spacingRight=4;overflow=hidden;rotatable=0;points=[[0,0.5],[1,0.5]];portConstraint=eastwest;" parent="LKjwnLs6DcxSd8IVzzD5-17" vertex="1">
          <mxGeometry y="52" width="220" height="26" as="geometry" />
        </mxCell>
        <mxCell id="LKjwnLs6DcxSd8IVzzD5-21" value="+ generateAccessToken()&#xa;&#xa;+ saveToken()&#xa;" style="text;strokeColor=none;fillColor=none;align=left;verticalAlign=top;spacingLeft=4;spacingRight=4;overflow=hidden;rotatable=0;points=[[0,0.5],[1,0.5]];portConstraint=eastwest;" parent="LKjwnLs6DcxSd8IVzzD5-17" vertex="1">
          <mxGeometry y="78" width="220" height="26" as="geometry" />
        </mxCell>
        <mxCell id="LKjwnLs6DcxSd8IVzzD5-28" value="+ getAccessToken()" style="text;strokeColor=none;fillColor=none;align=left;verticalAlign=top;spacingLeft=4;spacingRight=4;overflow=hidden;rotatable=0;points=[[0,0.5],[1,0.5]];portConstraint=eastwest;" parent="LKjwnLs6DcxSd8IVzzD5-17" vertex="1">
          <mxGeometry y="104" width="220" height="26" as="geometry" />
        </mxCell>
        <mxCell id="LKjwnLs6DcxSd8IVzzD5-29" value="+ verifyScope()&#xa;&#xa;" style="text;strokeColor=none;fillColor=none;align=left;verticalAlign=top;spacingLeft=4;spacingRight=4;overflow=hidden;rotatable=0;points=[[0,0.5],[1,0.5]];portConstraint=eastwest;" parent="LKjwnLs6DcxSd8IVzzD5-17" vertex="1">
          <mxGeometry y="130" width="220" height="26" as="geometry" />
        </mxCell>
        <mxCell id="LKjwnLs6DcxSd8IVzzD5-30" value="+ generateRefreshToken()&#xa;&#xa;&#xa;&#xa;" style="text;strokeColor=none;fillColor=none;align=left;verticalAlign=top;spacingLeft=4;spacingRight=4;overflow=hidden;rotatable=0;points=[[0,0.5],[1,0.5]];portConstraint=eastwest;" parent="LKjwnLs6DcxSd8IVzzD5-17" vertex="1">
          <mxGeometry y="156" width="220" height="26" as="geometry" />
        </mxCell>
        <mxCell id="LKjwnLs6DcxSd8IVzzD5-32" value="+ generateAuthorizationCode()&#xa;&#xa;&#xa;" style="text;strokeColor=none;fillColor=none;align=left;verticalAlign=top;spacingLeft=4;spacingRight=4;overflow=hidden;rotatable=0;points=[[0,0.5],[1,0.5]];portConstraint=eastwest;" parent="LKjwnLs6DcxSd8IVzzD5-17" vertex="1">
          <mxGeometry y="182" width="220" height="26" as="geometry" />
        </mxCell>
        <mxCell id="LKjwnLs6DcxSd8IVzzD5-31" value="+ getAuthorizationCode()" style="text;strokeColor=none;fillColor=none;align=left;verticalAlign=top;spacingLeft=4;spacingRight=4;overflow=hidden;rotatable=0;points=[[0,0.5],[1,0.5]];portConstraint=eastwest;" parent="LKjwnLs6DcxSd8IVzzD5-17" vertex="1">
          <mxGeometry y="208" width="220" height="26" as="geometry" />
        </mxCell>
        <mxCell id="LKjwnLs6DcxSd8IVzzD5-35" value="+ saveAuthorizationCode()&#xa;&#xa;&#xa;" style="text;strokeColor=none;fillColor=none;align=left;verticalAlign=top;spacingLeft=4;spacingRight=4;overflow=hidden;rotatable=0;points=[[0,0.5],[1,0.5]];portConstraint=eastwest;" parent="LKjwnLs6DcxSd8IVzzD5-17" vertex="1">
          <mxGeometry y="234" width="220" height="26" as="geometry" />
        </mxCell>
        <mxCell id="LKjwnLs6DcxSd8IVzzD5-37" value="+ revokeAuthorizationCode()" style="text;strokeColor=none;fillColor=none;align=left;verticalAlign=top;spacingLeft=4;spacingRight=4;overflow=hidden;rotatable=0;points=[[0,0.5],[1,0.5]];portConstraint=eastwest;" parent="LKjwnLs6DcxSd8IVzzD5-17" vertex="1">
          <mxGeometry y="260" width="220" height="26" as="geometry" />
        </mxCell>
        <mxCell id="LKjwnLs6DcxSd8IVzzD5-36" value="+ validateScope()" style="text;strokeColor=none;fillColor=none;align=left;verticalAlign=top;spacingLeft=4;spacingRight=4;overflow=hidden;rotatable=0;points=[[0,0.5],[1,0.5]];portConstraint=eastwest;" parent="LKjwnLs6DcxSd8IVzzD5-17" vertex="1">
          <mxGeometry y="286" width="220" height="26" as="geometry" />
        </mxCell>
        <mxCell id="LKjwnLs6DcxSd8IVzzD5-34" value="+ getUser()" style="text;strokeColor=none;fillColor=none;align=left;verticalAlign=top;spacingLeft=4;spacingRight=4;overflow=hidden;rotatable=0;points=[[0,0.5],[1,0.5]];portConstraint=eastwest;" parent="LKjwnLs6DcxSd8IVzzD5-17" vertex="1">
          <mxGeometry y="312" width="220" height="26" as="geometry" />
        </mxCell>
        <mxCell id="LKjwnLs6DcxSd8IVzzD5-33" value="+ getRefreshToken()" style="text;strokeColor=none;fillColor=none;align=left;verticalAlign=top;spacingLeft=4;spacingRight=4;overflow=hidden;rotatable=0;points=[[0,0.5],[1,0.5]];portConstraint=eastwest;" parent="LKjwnLs6DcxSd8IVzzD5-17" vertex="1">
          <mxGeometry y="338" width="220" height="26" as="geometry" />
        </mxCell>
        <mxCell id="LKjwnLs6DcxSd8IVzzD5-39" value="- grantScopeAuth()" style="text;strokeColor=none;fillColor=none;align=left;verticalAlign=top;spacingLeft=4;spacingRight=4;overflow=hidden;rotatable=0;points=[[0,0.5],[1,0.5]];portConstraint=eastwest;" parent="LKjwnLs6DcxSd8IVzzD5-17" vertex="1">
          <mxGeometry y="364" width="220" height="26" as="geometry" />
        </mxCell>
        <mxCell id="LKjwnLs6DcxSd8IVzzD5-41" value="- getAccessScope()" style="text;strokeColor=none;fillColor=none;align=left;verticalAlign=top;spacingLeft=4;spacingRight=4;overflow=hidden;rotatable=0;points=[[0,0.5],[1,0.5]];portConstraint=eastwest;" parent="LKjwnLs6DcxSd8IVzzD5-17" vertex="1">
          <mxGeometry y="390" width="220" height="26" as="geometry" />
        </mxCell>
        <mxCell id="QnUv3ExUGTZ90vXtqcpq-1" value="Implements" style="endArrow=block;endSize=16;endFill=0;html=1;exitX=0.5;exitY=0;exitDx=0;exitDy=0;entryX=0.5;entryY=1;entryDx=0;entryDy=0;" edge="1" parent="1" source="LKjwnLs6DcxSd8IVzzD5-17">
          <mxGeometry width="160" relative="1" as="geometry">
            <mxPoint x="240" y="480" as="sourcePoint" />
            <mxPoint x="280" y="440" as="targetPoint" />
          </mxGeometry>
        </mxCell>
        <mxCell id="QnUv3ExUGTZ90vXtqcpq-9" value="&lt;pre style=&quot;font-style: normal ; font-weight: 400 ; letter-spacing: normal ; text-align: left ; text-indent: 0px ; text-transform: none ; word-spacing: 0px ; background-color: rgb(43 , 43 , 43) ; color: rgb(169 , 183 , 198) ; font-family: &amp;#34;jetbrains mono&amp;#34; , monospace ; font-size: 9.8pt&quot;&gt;&lt;br&gt;&lt;/pre&gt;" style="text;whiteSpace=wrap;html=1;" vertex="1" parent="1">
          <mxGeometry x="480" y="290" width="200" height="60" as="geometry" />
        </mxCell>
        <mxCell id="QnUv3ExUGTZ90vXtqcpq-14" value="«interface»&lt;br&gt;&lt;b&gt;AuthorizationCodeModel&lt;/b&gt;&lt;b&gt;&lt;br&gt;&lt;/b&gt;" style="html=1;" vertex="1" parent="1">
          <mxGeometry x="178" y="390" width="204" height="50" as="geometry" />
        </mxCell>
        <mxCell id="QnUv3ExUGTZ90vXtqcpq-19" value="" style="endArrow=open;endFill=1;endSize=12;html=1;exitX=0;exitY=0;exitDx=0;exitDy=0;entryX=1.005;entryY=1.091;entryDx=0;entryDy=0;entryPerimeter=0;" edge="1" parent="1" source="LKjwnLs6DcxSd8IVzzD5-17" target="QnUv3ExUGTZ90vXtqcpq-21">
          <mxGeometry width="160" relative="1" as="geometry">
            <mxPoint x="400" y="510" as="sourcePoint" />
            <mxPoint x="560" y="510" as="targetPoint" />
          </mxGeometry>
        </mxCell>
        <mxCell id="QnUv3ExUGTZ90vXtqcpq-20" value="Request&#xa;" style="swimlane;fontStyle=1;align=center;verticalAlign=top;childLayout=stackLayout;horizontal=1;startSize=26;horizontalStack=0;resizeParent=1;resizeParentMax=0;resizeLast=0;collapsible=1;marginBottom=0;" vertex="1" parent="1">
          <mxGeometry x="-70" y="490" width="160" height="86" as="geometry" />
        </mxCell>
        <mxCell id="QnUv3ExUGTZ90vXtqcpq-21" value="+ field: type" style="text;strokeColor=none;fillColor=none;align=left;verticalAlign=top;spacingLeft=4;spacingRight=4;overflow=hidden;rotatable=0;points=[[0,0.5],[1,0.5]];portConstraint=eastwest;" vertex="1" parent="QnUv3ExUGTZ90vXtqcpq-20">
          <mxGeometry y="26" width="160" height="26" as="geometry" />
        </mxCell>
        <mxCell id="QnUv3ExUGTZ90vXtqcpq-22" value="" style="line;strokeWidth=1;fillColor=none;align=left;verticalAlign=middle;spacingTop=-1;spacingLeft=3;spacingRight=3;rotatable=0;labelPosition=right;points=[];portConstraint=eastwest;" vertex="1" parent="QnUv3ExUGTZ90vXtqcpq-20">
          <mxGeometry y="52" width="160" height="8" as="geometry" />
        </mxCell>
        <mxCell id="QnUv3ExUGTZ90vXtqcpq-23" value="+ method(type): type" style="text;strokeColor=none;fillColor=none;align=left;verticalAlign=top;spacingLeft=4;spacingRight=4;overflow=hidden;rotatable=0;points=[[0,0.5],[1,0.5]];portConstraint=eastwest;" vertex="1" parent="QnUv3ExUGTZ90vXtqcpq-20">
          <mxGeometry y="60" width="160" height="26" as="geometry" />
        </mxCell>
        <mxCell id="QnUv3ExUGTZ90vXtqcpq-24" value="Crypto&#xa;" style="swimlane;fontStyle=1;align=center;verticalAlign=top;childLayout=stackLayout;horizontal=1;startSize=26;horizontalStack=0;resizeParent=1;resizeParentMax=0;resizeLast=0;collapsible=1;marginBottom=0;" vertex="1" parent="1">
          <mxGeometry x="470" y="490" width="160" height="86" as="geometry" />
        </mxCell>
        <mxCell id="QnUv3ExUGTZ90vXtqcpq-25" value="+ field: type" style="text;strokeColor=none;fillColor=none;align=left;verticalAlign=top;spacingLeft=4;spacingRight=4;overflow=hidden;rotatable=0;points=[[0,0.5],[1,0.5]];portConstraint=eastwest;" vertex="1" parent="QnUv3ExUGTZ90vXtqcpq-24">
          <mxGeometry y="26" width="160" height="26" as="geometry" />
        </mxCell>
        <mxCell id="QnUv3ExUGTZ90vXtqcpq-26" value="" style="line;strokeWidth=1;fillColor=none;align=left;verticalAlign=middle;spacingTop=-1;spacingLeft=3;spacingRight=3;rotatable=0;labelPosition=right;points=[];portConstraint=eastwest;" vertex="1" parent="QnUv3ExUGTZ90vXtqcpq-24">
          <mxGeometry y="52" width="160" height="8" as="geometry" />
        </mxCell>
        <mxCell id="QnUv3ExUGTZ90vXtqcpq-27" value="+ method(type): type" style="text;strokeColor=none;fillColor=none;align=left;verticalAlign=top;spacingLeft=4;spacingRight=4;overflow=hidden;rotatable=0;points=[[0,0.5],[1,0.5]];portConstraint=eastwest;" vertex="1" parent="QnUv3ExUGTZ90vXtqcpq-24">
          <mxGeometry y="60" width="160" height="26" as="geometry" />
        </mxCell>
        <mxCell id="QnUv3ExUGTZ90vXtqcpq-38" value="«interface»&lt;br&gt;&lt;b&gt;Client&lt;/b&gt;" style="html=1;" vertex="1" parent="1">
          <mxGeometry x="495" y="770" width="110" height="50" as="geometry" />
        </mxCell>
        <mxCell id="QnUv3ExUGTZ90vXtqcpq-40" value="«interface»&lt;br&gt;&lt;b&gt;AuthorizationCode&lt;/b&gt;" style="html=1;" vertex="1" parent="1">
          <mxGeometry x="485" y="690" width="130" height="50" as="geometry" />
        </mxCell>
        <mxCell id="QnUv3ExUGTZ90vXtqcpq-43" value="«interface»&lt;br&gt;&lt;b&gt;RefreshToken&lt;/b&gt;" style="html=1;" vertex="1" parent="1">
          <mxGeometry x="495" y="928" width="110" height="50" as="geometry" />
        </mxCell>
        <mxCell id="QnUv3ExUGTZ90vXtqcpq-44" value="«interface»&lt;br&gt;&lt;b&gt;Token&lt;/b&gt;" style="html=1;" vertex="1" parent="1">
          <mxGeometry x="495" y="610" width="110" height="50" as="geometry" />
        </mxCell>
        <mxCell id="QnUv3ExUGTZ90vXtqcpq-45" value="«interface»&lt;br&gt;&lt;b&gt;User&lt;/b&gt;" style="html=1;" vertex="1" parent="1">
          <mxGeometry x="495" y="850" width="110" height="50" as="geometry" />
        </mxCell>
        <mxCell id="QnUv3ExUGTZ90vXtqcpq-46" value="" style="endArrow=open;endFill=1;endSize=12;html=1;exitX=1;exitY=0.5;exitDx=0;exitDy=0;entryX=0;entryY=0.5;entryDx=0;entryDy=0;" edge="1" parent="1" source="LKjwnLs6DcxSd8IVzzD5-41" target="QnUv3ExUGTZ90vXtqcpq-43">
          <mxGeometry width="160" relative="1" as="geometry">
            <mxPoint x="320" y="730" as="sourcePoint" />
            <mxPoint x="480" y="730" as="targetPoint" />
          </mxGeometry>
        </mxCell>
        <mxCell id="QnUv3ExUGTZ90vXtqcpq-47" value="" style="endArrow=open;endFill=1;endSize=12;html=1;exitX=1;exitY=0.5;exitDx=0;exitDy=0;entryX=0;entryY=0.5;entryDx=0;entryDy=0;" edge="1" parent="1" source="LKjwnLs6DcxSd8IVzzD5-34" target="QnUv3ExUGTZ90vXtqcpq-45">
          <mxGeometry width="160" relative="1" as="geometry">
            <mxPoint x="320" y="730" as="sourcePoint" />
            <mxPoint x="480" y="730" as="targetPoint" />
          </mxGeometry>
        </mxCell>
        <mxCell id="QnUv3ExUGTZ90vXtqcpq-48" value="" style="endArrow=open;endFill=1;endSize=12;html=1;exitX=1;exitY=0.5;exitDx=0;exitDy=0;entryX=0;entryY=0.5;entryDx=0;entryDy=0;" edge="1" parent="1" source="LKjwnLs6DcxSd8IVzzD5-35" target="QnUv3ExUGTZ90vXtqcpq-38">
          <mxGeometry width="160" relative="1" as="geometry">
            <mxPoint x="320" y="730" as="sourcePoint" />
            <mxPoint x="480" y="730" as="targetPoint" />
          </mxGeometry>
        </mxCell>
        <mxCell id="QnUv3ExUGTZ90vXtqcpq-49" value="" style="endArrow=open;endFill=1;endSize=12;html=1;exitX=1;exitY=0.5;exitDx=0;exitDy=0;entryX=0;entryY=0.5;entryDx=0;entryDy=0;" edge="1" parent="1" source="LKjwnLs6DcxSd8IVzzD5-30" target="QnUv3ExUGTZ90vXtqcpq-40">
          <mxGeometry width="160" relative="1" as="geometry">
            <mxPoint x="414" y="710" as="sourcePoint" />
            <mxPoint x="574" y="710" as="targetPoint" />
          </mxGeometry>
        </mxCell>
        <mxCell id="QnUv3ExUGTZ90vXtqcpq-50" value="" style="endArrow=open;endFill=1;endSize=12;html=1;exitX=1;exitY=0.5;exitDx=0;exitDy=0;entryX=0;entryY=0.5;entryDx=0;entryDy=0;" edge="1" parent="1" source="LKjwnLs6DcxSd8IVzzD5-21" target="QnUv3ExUGTZ90vXtqcpq-44">
          <mxGeometry width="160" relative="1" as="geometry">
            <mxPoint x="430" y="650" as="sourcePoint" />
            <mxPoint x="590" y="650" as="targetPoint" />
          </mxGeometry>
        </mxCell>
        <mxCell id="QnUv3ExUGTZ90vXtqcpq-51" value="" style="endArrow=open;endFill=1;endSize=12;html=1;exitX=1;exitY=0;exitDx=0;exitDy=0;entryX=0;entryY=0.5;entryDx=0;entryDy=0;" edge="1" parent="1" source="LKjwnLs6DcxSd8IVzzD5-17" target="QnUv3ExUGTZ90vXtqcpq-25">
          <mxGeometry width="160" relative="1" as="geometry">
            <mxPoint x="320" y="730" as="sourcePoint" />
            <mxPoint x="480" y="730" as="targetPoint" />
          </mxGeometry>
        </mxCell>
      </root>
    </mxGraphModel>
  </diagram>
</mxfile>
